<svg xmlns="http://www.w3.org/2000/svg" viewBox="0 0 512 512" width="100%" height="100%">
  <polygon points="110.0,30.0 180.0,220.0 215.0,140.0" fill="rgb(63,81,181)" />
  <polygon points="110.0,30.0 215.0,140.0 256.0,170.0" fill="rgb(48,63,159)" />
  <polygon points="402.0,30.0 332.0,220.0 297.0,140.0" fill="rgb(156,39,176)" />
  <polygon points="402.0,30.0 297.0,140.0 256.0,170.0" fill="rgb(123,31,162)" />
  <polygon points="256.0,170.0 180.0,220.0 256.0,275.0" fill="rgb(149,117,205)" />
  <polygon points="256.0,170.0 332.0,220.0 256.0,275.0" fill="rgb(186,104,200)" />
  <polygon points="180.0,220.0 140.0,310.0 210.0,340.0" fill="rgb(26,35,126)" />
  <polygon points="180.0,220.0 210.0,340.0 256.0,275.0" fill="rgb(81,45,168)" />
  <polygon points="332.0,220.0 372.0,310.0 302.0,340.0" fill="rgb(74,20,140)" />
  <polygon points="332.0,220.0 302.0,340.0 256.0,275.0" fill="rgb(194,24,91)" />
  <polygon points="256.0,275.0 210.0,340.0 256.0,360.0" fill="rgb(103,58,183)" />
  <polygon points="256.0,275.0 302.0,340.0 256.0,360.0" fill="rgb(233,30,99)" />
  <polygon points="140.0,310.0 256.0,440.0 210.0,340.0" fill="rgb(28,27,94)" />
  <polygon points="372.0,310.0 256.0,440.0 302.0,340.0" fill="rgb(50,11,95)" />
  <polygon points="210.0,340.0 256.0,440.0 256.0,360.0" fill="rgb(15,14,61)" />
  <polygon points="302.0,340.0 256.0,440.0 256.0,360.0" fill="rgb(33,4,64)" />
  <polygon points="256,185 266,210 255,210 257,235 247,215 258,215" fill="rgb(255,235,59)" />
  <polygon points="170,290 187.5,260 222.5,260 240,290 222.5,320 187.5,320" fill="none" stroke="rgb(255,235,59)" stroke-width="6" stroke-linejoin="round" />
  <polygon points="272,290 289.5,260 324.5,260 342,290 324.5,320 289.5,320" fill="none" stroke="rgb(255,235,59)" stroke-width="6" stroke-linejoin="round" />
  <line x1="240" y1="290" x2="272" y2="290" stroke="rgb(255,235,59)" stroke-width="6" stroke-linecap="round" />
</svg>